<?xml version="1.0" standalone="no"?>
<!DOCTYPE svg PUBLIC "-//W3C//DTD SVG 20010904//EN"
 "http://www.w3.org/TR/2001/REC-SVG-20010904/DTD/svg10.dtd">
<svg version="1.0" xmlns="http://www.w3.org/2000/svg"
 width="256.000000pt" height="256.000000pt" viewBox="0 0 256.000000 256.000000"
 preserveAspectRatio="xMidYMid meet">

<g transform="translate(0.000000,256.000000) scale(0.100000,-0.100000)"
fill="#000000" stroke="none">
<path d="M1210 2269 c-237 -26 -436 -197 -506 -434 -21 -73 -24 -217 -5 -295
23 -96 80 -198 151 -272 36 -37 70 -68 77 -68 16 0 167 119 321 254 74 64 139
116 146 116 7 0 21 -9 31 -20 14 -16 16 -26 9 -44 -10 -27 -161 -164 -314
-285 l-102 -81 38 -16 c299 -125 671 38 780 341 42 118 40 119 -39 38 -84 -87
-100 -98 -125 -84 -11 6 -45 62 -78 126 l-59 116 -118 61 c-65 34 -123 70
-128 80 -14 25 -3 41 83 125 l74 72 83 -21 82 -21 55 54 c30 29 54 59 54 66 0
21 -112 105 -185 138 -109 50 -207 67 -325 54z"/>
<path d="M1846 1762 c-18 -21 -18 -23 1 -99 l20 -78 8 48 c4 27 4 71 -1 99 -9
50 -9 50 -28 30z"/>
</g>
</svg>
